Coordinates
version=1
nRows=4
nColumns=63
inDegrees=yes

Units are S.I. units (second, meters, Newtons, ...)
If the header above contains a line with 'inDegrees', this indicates whether rotational values are in degrees (yes) or radians (no).

endheader
time	pelvis_tilt	pelvis_list	pelvis_rotation	pelvis_tx	pelvis_ty	pelvis_tz	hip_flexion_r	hip_adduction_r	hip_rotation_r	knee_angle_r	knee_angle_r_beta	ankle_angle_r	subtalar_angle_r	mtp_angle_r	hip_flexion_l	hip_adduction_l	hip_rotation_l	knee_angle_l	knee_angle_l_beta	ankle_angle_l	subtalar_angle_l	mtp_angle_l	L5_S1_Flex_Ext	L5_S1_Lat_Bending	L5_S1_axial_rotation	L4_L5_Flex_Ext	L4_L5_Lat_Bending	L4_L5_axial_rotation	L3_L4_Flex_Ext	L3_L4_Lat_Bending	L3_L4_axial_rotation	L2_L3_Flex_Ext	L2_L3_Lat_Bending	L2_L3_axial_rotation	L1_L2_Flex_Ext	L1_L2_Lat_Bending	L1_L2_axial_rotation	L1_T12_Flex_Ext	L1_T12_Lat_Bending	L1_T12_axial_rotation	Abs_r3	Abs_r2	Abs_r1	Abs_t1	Abs_t2	neck_flexion	neck_bending	neck_rotation	arm_flex_r	arm_add_r	arm_rot_r	elbow_flex_r	pro_sup_r	wrist_flex_r	wrist_dev_r	arm_flex_l	arm_add_l	arm_rot_l	elbow_flex_l	pro_sup_l	wrist_flex_l	wrist_dev_l
      2.50000000	     -5.01031438	     -5.57017664	     64.69908718	      0.21068422	      0.94035251	      0.51744085	      9.31220619	      0.88207189	     10.12912164	     10.65778984	      0.18601352	     24.43127997	     -9.97273246	      0.00000000	      6.48663535	     -2.24537927	     -7.46926123	      5.48063757	      0.09565517	     32.57579205	      5.84128259	      0.00000000	      0.17141703	      0.20745921	      1.31341627	      0.31833857	      0.27592075	      1.39550479	      0.28162105	      0.50441632	      1.39550479	      0.19591253	      0.50441632	      1.14923924	      0.15917786	      0.42305082	      1.06715072	      0.09794769	      0.32135432	      0.98506220	      1.22441474	      2.34682008	      7.30482728	      0.00000000	      0.00000000	     27.76395519	     -1.50519884	     -2.08974755	      5.84426703	    -20.47016905	     -0.90677504	     35.59085133	     84.30392259	    -14.57222342	      3.69233445	     10.55299061	    -22.34629906	     14.65383717	     23.37170366	     80.01960312	    -16.70671182	     -4.72028246
      2.52500000	     -4.78196960	     -6.39027585	     65.12321102	      0.20815073	      0.93668353	      0.51795080	     10.35777394	      1.27321798	      9.01446523	     10.97452454	      0.19154159	     25.68751696	     -8.45447839	      0.00000000	      7.90924970	     -2.88108363	     -8.39402858	      6.60565547	      0.11529044	     34.16046121	      7.86942567	      0.00000000	      0.22659727	      0.27408854	      1.21281536	      0.42081379	      0.36453776	      1.28861632	      0.37227665	      0.66641887	      1.28861632	      0.25897802	      0.66641887	      1.06121344	      0.21041822	      0.55892135	      0.98541248	      0.12947768	      0.42456315	      0.90961152	      1.61856163	      3.10054438	      6.74531520	      0.00000000	      0.00000000	     28.06119995	     -1.04172193	     -1.46649450	      7.54830088	    -21.04382203	      4.04993123	     30.72898287	     82.88043178	    -14.69029518	      2.59556473	     17.76279190	    -20.27722521	    113.35499936	      2.71085258	      3.14170629	    -10.71067446	    -10.87400611
      2.55000000	     -4.97438632	     -7.02977587	     65.64879882	      0.20721525	      0.93287033	      0.51878577	     11.38650436	      1.27873711	      8.17738645	     11.33119367	      0.19776664	     27.10177214	     -7.44516005	      0.00000000	      9.45052428	     -3.20770838	     -9.86946659	      7.97556549	      0.13919988	     35.74346939	     10.54012671	      0.00000000	      0.29248707	      0.24989837	      1.05990927	      0.54317774	      0.33236483	      1.12615360	      0.48052701	      0.60760289	      1.12615360	      0.33428347	      0.60760289	      0.92742061	      0.27160349	      0.50959275	      0.86117628	      0.16712711	      0.38709257	      0.79493195	      2.08920590	      2.82690030	      5.89489739	      0.00000000	      0.00000000	     28.20735960	     -0.06050284	     -1.38494740	      8.83043390	    -20.92402867	      9.05145938	     27.30845761	     81.07908410	    -14.98934558	      1.11439569	     16.53450660	    -20.55023127	    117.18031386	      3.18359832	      3.73059475	    -10.98245004	     -7.78366754
      2.57500000	     -5.18925463	     -7.33110498	     65.87594227	      0.20699059	      0.93038156	      0.51942217	     12.02368462	      1.21135584	      7.97383917	     11.63899099	      0.20313871	     28.03846039	     -7.42033512	      0.00000000	     10.41053874	     -3.27143175	    -10.18280257	      8.88608787	      0.15509149	     36.49245844	     10.71656393	      0.00000000	      0.33284403	      0.20454971	      1.01919253	      0.61812465	      0.27205111	      1.08289207	      0.54682946	      0.49734216	      1.08289207	      0.38040744	      0.49734216	      0.89179347	      0.30907897	      0.41711777	      0.82809393	      0.19018708	      0.31684750	      0.76439440	      2.37747162	      2.31390723	      5.66844312	      0.00000000	      0.00000000	     28.26566834	      0.47985513	     -2.04444573	      9.31867563	    -20.52528159	     11.49003724	     25.18431218	     82.67593733	    -15.26594281	     -0.11835688	     15.58550902	    -20.75669634	    118.27513466	      3.80741283	      5.10038651	    -10.86455990	     -6.10196395
